<?xml version="1.0" encoding="utf-8"?>
<!-- Generator: Adobe Illustrator 23.0.1, SVG Export Plug-In . SVG Version: 6.00 Build 0)  -->
<svg version="1.1" id="Layer_1" xmlns="http://www.w3.org/2000/svg" xmlns:xlink="http://www.w3.org/1999/xlink" x="0px" y="0px"
	 viewBox="0 0 163.33 35" style="enable-background:new 0 0 163.33 35;" xml:space="preserve">
<style type="text/css">
	.st0{fill:#FFFFFF;}
</style>
<g>
	<g>
		<path class="st0" d="M4.58,21.06c-0.36-3.62,0.15-5.81,1.4-8.15c2.14-4.01,4.98-6.31,8.36-7.44c6.67-2.21,13.85,0.67,17.18,6.45
			c0.06,0.11-0.1,0.17-0.17,0.07c-2.56-3.66-7.94-6.64-14.12-3.83c-2.8,1.27-6.27,4.64-6.62,10.12c0,0-1.89,0.5-3.11,1.1
			C5.44,20.38,4.58,21.06,4.58,21.06"/>
		<path class="st0" d="M36.45,24.36C35.23,27.67,30.31,35,21.7,35c-5.89,0-12.11-2.44-15.55-9.06c0.16-0.21,4.38-2.65,5.26-3.22
			c1.12,2.97,3.52,5.42,6.75,6.51c2.77,0.94,6.32,0.82,8.89-0.58c8.21-4.48,8.23-14.67,5.52-20.19c-1.69-3.44-4.8-6.87-9.66-8.37
			c-0.8-0.25,5.2-0.35,10.7,6.4C36.9,10.55,38.86,17.8,36.45,24.36"/>
		<path class="st0" d="M35.23,27.63c2.92-1.28,6.52-4.08,5.58-6.57c-1.59-4.23-8.8-5-19.94-2.47c-5.12,1.17-9.79,4.32-13.07,6.42
			c-3.21,2.06-4.03,4.48-2.26,5.59c0,0-2.35,1.17-4.08,0.31c-3.29-1.62-0.71-5.38,4.53-8.74c3.61-2.31,8.62-4.27,14.11-5.52
			c10.48-2.38,20.56-1.04,21.58,4.31C42.55,25.55,35.23,27.63,35.23,27.63"/>
	</g>
	<g>
		<path class="st0" d="M62.39,9.41c1.28,0.55,2.4,1.3,3.35,2.25c0.95,0.95,1.7,2.07,2.25,3.35c0.55,1.28,0.83,2.64,0.83,4.09
			c0,1.44-0.28,2.8-0.83,4.09c-0.55,1.28-1.3,2.4-2.25,3.35c-0.95,0.95-2.07,1.7-3.35,2.25c-1.28,0.55-2.64,0.83-4.08,0.83h-8.98
			l4.16-3.66h4.82c0.86,0,1.68-0.17,2.45-0.51c0.77-0.34,1.44-0.82,2.01-1.43c0.57-0.61,1.02-1.34,1.35-2.18
			c0.33-0.84,0.5-1.75,0.5-2.73c0-0.96-0.17-1.86-0.5-2.7c-0.33-0.84-0.78-1.57-1.35-2.18c-0.57-0.61-1.24-1.09-2.01-1.44
			c-0.77-0.35-1.59-0.53-2.45-0.53H53.5v11.75l-4.21,3.8V8.58h9.01C59.75,8.58,61.11,8.86,62.39,9.41"/>
		<path class="st0" d="M83.75,8.58l0.03,3.51h-8.93l-0.03,14.03h8.93v3.48H70.62V8.58H83.75z M82.21,21.23h-6.64v-3.91h4.55
			L82.21,21.23z"/>
		<path class="st0" d="M121.26,8.58l0.03,3.51h-8.93l-0.03,14.03h8.93v3.48h-13.13V8.58H121.26z M119.72,21.23h-6.64v-3.91h4.55
			L119.72,21.23z"/>
		<path class="st0" d="M89.66,8.58l5.74,13.97l-2.39,5.21L85.13,8.58H89.66z M102.4,8.58h4.54l-8.62,21.03h-4.51L102.4,8.58z"/>
		<path class="st0" d="M135.92,22.7c-0.48,0.22-0.93,0.38-1.34,0.48c-0.41,0.1-0.91,0.17-1.5,0.19c-0.59,0.03-1.32,0.04-2.19,0.03
			c-0.87-0.01-2-0.01-3.38-0.01v6.22h-4.24V8.58h9.52c1.02,0,1.98,0.2,2.87,0.59c0.89,0.39,1.67,0.92,2.34,1.59
			c0.67,0.67,1.2,1.46,1.59,2.37c0.39,0.91,0.59,1.88,0.59,2.9c0,1.5-0.4,2.84-1.19,4.03C138.21,21.24,137.18,22.12,135.92,22.7
			 M127.51,19.19h5.29c0.9,0,1.66-0.32,2.28-0.95c0.62-0.63,0.93-1.48,0.93-2.54c0-0.44-0.09-0.87-0.25-1.28
			c-0.17-0.41-0.4-0.78-0.69-1.1c-0.29-0.32-0.63-0.58-1.02-0.77c-0.39-0.19-0.81-0.28-1.25-0.28h-5.29v6.82v0.03V19.19z
			 M140.7,29.61h-5.35l-4.04-4.98l5.33-0.03L140.7,29.61z"/>
		<polygon class="st0" points="157.27,25.89 147.65,25.89 146.06,29.61 141.56,29.61 150.18,8.58 154.71,8.58 149.16,22.13 
			155.73,22.13 153.22,16.1 155.62,10.76 163.33,29.61 158.83,29.61 		"/>
	</g>
</g>
</svg>
